<!DOCTYPE svg PUBLIC "-//W3C//DTD SVG 1.1//EN" "http://www.w3.org/Graphics/SVG/1.1/DTD/svg11.dtd">
<svg version="1.1" id="delete-btn" xmlns="http://www.w3.org/2000/svg" xmlns:xlink="http://www.w3.org/1999/xlink" x="0px" y="0px"
	 width="100%" height="100%" viewBox="0 0 800 800" style="enable-background:new 0 0 800 800;" xml:space="preserve">
<g>
	<rect x="0.5" y="0.5" style="opacity:0;stroke:#000000;stroke-miterlimit:10;" width="800" height="800"/>
	<g id="Add_2_">
		<path d="M378.904,251.78H261.319c-10.823,0-19.599,8.774-19.599,19.597c0,10.823,8.776,19.597,19.599,19.597h117.584l39.194,0
			h117.585c10.823,0,19.597-8.775,19.597-19.597c0.001-10.822-8.774-19.596-19.597-19.596H418.098L378.904,251.78z"/>
	</g>
	<g>
		<path d="M165.605,683.875c-5.203,2.602-11.452,4.754-18.75,6.451c-7.303,1.696-14.85,2.746-22.65,3.149
			c-10.003-0.202-19.402-2.353-28.2-6.45c-8.803-4.097-16.453-9.698-22.95-16.8c-6.502-7.097-11.653-15.3-15.45-24.601
			c-3.802-9.299-5.7-19.35-5.7-30.149c0-10.599,1.898-20.499,5.7-29.7c3.797-9.197,8.948-17.25,15.45-24.15
			c6.497-6.899,14.146-12.398,22.95-16.5c8.798-4.096,18.197-6.149,28.2-6.149c8.597,0,16.247,0.75,22.95,2.25
			c6.699,1.5,12.849,3.952,18.45,7.351v-63.9h16.5v205.8h-16.5V683.875z M165.605,565.676c-1.2-0.6-3.202-1.5-6-2.7
			c-2.803-1.2-6.052-2.349-9.75-3.45c-3.703-1.097-7.753-2.049-12.15-2.85c-4.402-0.797-8.902-1.2-13.5-1.2
			c-7.8,0.202-15.15,1.95-22.05,5.25c-6.9,3.3-12.9,7.649-18,13.05c-5.1,5.4-9.103,11.7-12,18.9c-2.901,7.199-4.35,14.803-4.35,22.8
			c0,8.399,1.5,16.251,4.5,23.55c3,7.303,7.05,13.754,12.15,19.35c5.1,5.602,11.1,10.102,18,13.5c6.9,3.404,14.348,5.203,22.35,5.4
			c5.597,0,10.847-0.549,15.75-1.65c4.898-1.096,9.248-2.348,13.05-3.75c4.397-1.598,8.4-3.398,12-5.399V565.676z"/>
		<path d="M269.403,676.676c3.999,0,8.1-0.398,12.3-1.2c4.2-0.797,8.25-1.847,12.15-3.149c3.9-1.299,7.547-2.748,10.95-4.351
			c3.398-1.599,6.3-3.3,8.7-5.101l6.6,15.301c-5.4,4.003-12.103,7.199-20.1,9.6c-8.001,2.4-15.802,4.098-23.4,5.1
			c-1.003,0.197-2.302,0.301-3.9,0.301c-1.604,0-2.902,0-3.9,0c-8.4,0-16.303-1.852-23.7-5.551
			c-7.402-3.697-13.95-8.798-19.65-15.299c-5.7-6.498-10.35-14.147-13.95-22.951c-3.6-8.798-5.7-18.196-6.3-28.199v-5.4
			c0-10.598,1.598-20.597,4.8-30c3.197-9.398,7.547-17.597,13.05-24.6c5.499-6.998,11.897-12.549,19.2-16.65
			c7.298-4.097,15.047-6.15,23.25-6.15c8.4,0,16.2,1.754,23.4,5.25c7.2,3.502,13.5,8.452,18.9,14.851
			c5.4,6.403,9.6,14.054,12.6,22.95c3,8.901,4.5,18.75,4.5,29.55v9.3h-102.9c0.6,7.604,2.25,14.85,4.95,21.75
			c2.7,6.9,6.15,12.9,10.35,18c4.2,5.1,9.047,9.15,14.55,12.15C257.352,675.176,263.201,676.676,269.403,676.676z M309.003,604.076
			c-1.003-6.999-2.803-13.5-5.4-19.5c-2.602-6-5.85-11.147-9.75-15.451c-3.9-4.298-8.25-7.696-13.05-10.199
			c-4.8-2.498-9.9-3.75-15.3-3.75s-10.552,1.152-15.45,3.449c-4.903,2.303-9.3,5.602-13.2,9.9c-3.9,4.303-7.102,9.45-9.6,15.45
			c-2.503,6-4.153,12.703-4.95,20.101H309.003z"/>
		<path d="M352.201,465.775H368.4l0.301,224.7h-16.2L352.201,465.775z"/>
		<path d="M454.797,676.676c3.998,0,8.1-0.398,12.3-1.2c4.2-0.797,8.25-1.847,12.149-3.149c3.9-1.299,7.547-2.748,10.95-4.351
			c3.398-1.599,6.3-3.3,8.7-5.101l6.6,15.301c-5.399,4.003-12.103,7.199-20.1,9.6c-8.002,2.4-15.802,4.098-23.4,5.1
			c-1.003,0.197-2.301,0.301-3.899,0.301c-1.604,0-2.901,0-3.9,0c-8.399,0-16.303-1.852-23.7-5.551
			c-7.401-3.697-13.949-8.798-19.649-15.299c-5.7-6.498-10.351-14.147-13.95-22.951c-3.6-8.798-5.7-18.196-6.3-28.199v-5.4
			c0-10.598,1.599-20.597,4.8-30c3.197-9.398,7.547-17.597,13.05-24.6c5.499-6.998,11.897-12.549,19.2-16.65
			c7.299-4.097,15.047-6.15,23.25-6.15c8.4,0,16.2,1.754,23.4,5.25c7.199,3.502,13.5,8.452,18.899,14.851
			c5.4,6.403,9.601,14.054,12.601,22.95c3,8.901,4.5,18.75,4.5,29.55v9.3h-102.9c0.6,7.604,2.25,14.85,4.95,21.75
			s6.149,12.9,10.35,18s9.047,9.15,14.55,12.15C442.745,675.176,448.595,676.676,454.797,676.676z M494.396,604.076
			c-1.003-6.999-2.803-13.5-5.4-19.5c-2.602-6-5.85-11.147-9.75-15.451c-3.899-4.298-8.25-7.696-13.05-10.199
			c-4.8-2.498-9.899-3.75-15.3-3.75s-10.552,1.152-15.45,3.449c-4.903,2.303-9.3,5.602-13.2,9.9c-3.899,4.303-7.102,9.45-9.6,15.45
			c-2.503,6-4.153,12.703-4.95,20.101H494.396z"/>
		<path d="M571.795,484.676v57.9h39.301v16.5h-39.301c0,21.6,0.047,43.5,0.15,65.699c0.099,22.2,0.15,44.1,0.15,65.7h-16.2V559.076
			h-22.2v-16.5h21.6v-57.9H571.795z"/>
		<path d="M693.595,676.676c3.998,0,8.1-0.398,12.3-1.2c4.2-0.797,8.25-1.847,12.149-3.149c3.9-1.299,7.547-2.748,10.95-4.351
			c3.398-1.599,6.3-3.3,8.7-5.101l6.6,15.301c-5.399,4.003-12.103,7.199-20.1,9.6c-8.002,2.4-15.802,4.098-23.4,5.1
			c-1.003,0.197-2.301,0.301-3.899,0.301c-1.604,0-2.901,0-3.9,0c-8.399,0-16.303-1.852-23.7-5.551
			c-7.401-3.697-13.949-8.798-19.649-15.299c-5.7-6.498-10.351-14.147-13.95-22.951c-3.6-8.798-5.7-18.196-6.3-28.199v-5.4
			c0-10.598,1.599-20.597,4.8-30c3.197-9.398,7.547-17.597,13.05-24.6c5.499-6.998,11.897-12.549,19.2-16.65
			c7.299-4.097,15.047-6.15,23.25-6.15c8.4,0,16.2,1.754,23.4,5.25c7.199,3.502,13.5,8.452,18.899,14.851
			c5.4,6.403,9.601,14.054,12.601,22.95c3,8.901,4.5,18.75,4.5,29.55v9.3h-102.9c0.6,7.604,2.25,14.85,4.95,21.75
			s6.149,12.9,10.35,18s9.047,9.15,14.55,12.15C681.543,675.176,687.393,676.676,693.595,676.676z M733.194,604.076
			c-1.003-6.999-2.803-13.5-5.4-19.5c-2.602-6-5.85-11.147-9.75-15.451c-3.899-4.298-8.25-7.696-13.05-10.199
			c-4.8-2.498-9.899-3.75-15.3-3.75s-10.552,1.152-15.45,3.449c-4.903,2.303-9.3,5.602-13.2,9.9c-3.899,4.303-7.102,9.45-9.6,15.45
			c-2.503,6-4.153,12.703-4.95,20.101H733.194z"/>
	</g>
</g>
</svg>
