<!DOCTYPE svg PUBLIC "-//W3C//DTD SVG 1.1//EN" "http://www.w3.org/Graphics/SVG/1.1/DTD/svg11.dtd">
<svg version="1.1" id="menu-icon" xmlns="http://www.w3.org/2000/svg" xmlns:xlink="http://www.w3.org/1999/xlink" x="0px" y="0px"
width="100%" height="100%" viewBox="0 0 400 400" enable-background="new 0 0 400 400" xml:space="preserve">
<rect fill="transparent" width="400" height="400"/>
<g>
	<path d="M326.147,82.55H73.854c-15.107,0-27.354,12.248-27.354,27.354v0.936c0,15.106,12.247,27.354,27.354,27.354h252.292
		c15.107,0,27.354-12.248,27.354-27.354h0.001v-0.936C353.501,94.797,341.253,82.55,326.147,82.55z"/>
	<path d="M326.147,173.138H73.854c-15.107,0-27.354,12.248-27.354,27.354v0.936c0,15.107,12.248,27.354,27.354,27.354h252.292
		c15.107,0,27.354-12.248,27.354-27.354h0.001v-0.936C353.501,185.385,341.253,173.138,326.147,173.138z"/>
	<path d="M326.147,261.806H73.854c-15.107,0-27.354,12.248-27.354,27.354v0.936c0,15.107,12.248,27.354,27.354,27.354h252.292
		c15.107,0,27.354-12.248,27.354-27.354h0.001v-0.936C353.501,274.053,341.253,261.806,326.147,261.806z"/>
</g>
</svg>
