<?xml version="1.0" encoding="utf-8"?>
<!-- Generator: Adobe Illustrator 17.0.0, SVG Export Plug-In . SVG Version: 6.00 Build 0)  -->
<!DOCTYPE svg PUBLIC "-//W3C//DTD SVG 1.1//EN" "http://www.w3.org/Graphics/SVG/1.1/DTD/svg11.dtd">
<svg version="1.1" id="menu-btn" xmlns="http://www.w3.org/2000/svg" xmlns:xlink="http://www.w3.org/1999/xlink" x="0px" y="0px"
	 width="100%" height="100%" viewBox="0 0 400 300" enable-background="new 0 0 400 300" xml:space="preserve">
<path fill="#AAAAAA" d="M353.5,60.84c0,15.106-12.247,27.354-27.354,27.354H73.854C58.747,88.194,46.5,75.946,46.5,60.84v-0.936
	c0-15.106,12.247-27.354,27.354-27.354h252.293c15.106,0,27.354,12.247,27.354,27.354v0.936H353.5z"/>
<path fill="#AAAAAA" d="M353.5,151.428c0,15.106-12.247,27.354-27.354,27.354H73.854c-15.106,0-27.354-12.247-27.354-27.354v-0.936
	c0-15.106,12.247-27.354,27.354-27.354h252.293c15.106,0,27.354,12.247,27.354,27.354v0.936H353.5z"/>
<path fill="#AAAAAA" d="M353.5,240.096c0,15.106-12.247,27.354-27.354,27.354H73.854c-15.106,0-27.354-12.247-27.354-27.354v-0.936
	c0-15.106,12.247-27.354,27.354-27.354h252.293c15.106,0,27.354,12.247,27.354,27.354v0.936H353.5z"/>
</svg>
