<!DOCTYPE svg PUBLIC "-//W3C//DTD SVG 1.1//EN" "http://www.w3.org/Graphics/SVG/1.1/DTD/svg11.dtd">
<svg version="1.1" id="remove-btn" xmlns="http://www.w3.org/2000/svg" xmlns:xlink="http://www.w3.org/1999/xlink" x="0px" y="0px"
	 width="100%" height="100%" viewBox="0 0 1600 400" style="enable-background:new 0 0 1600 400;" xml:space="preserve">
<rect style="opacity:0;" width="1600" height="400"/>
<g>
	<g>
		<rect x="400" style="opacity:0;" width="1200" height="400"/>
		<g>
			<path d="M695.952,141.35c4.8-5.798,10.397-10.298,16.8-13.5c6.398-3.197,13.396-4.8,21-4.8c9.797,0,18.646,2.751,26.55,8.25
				c7.898,5.503,14.147,12.45,18.75,20.85c2.4-5.199,5.297-9.699,8.7-13.5c3.398-3.797,7.148-6.9,11.25-9.3
				c4.097-2.4,8.297-4.148,12.6-5.25c4.299-1.097,8.447-1.65,12.45-1.65c6.998,0,13.547,1.453,19.65,4.35
				c6.098,2.901,11.446,6.802,16.05,11.7c4.599,4.903,8.25,10.701,10.95,17.4c2.699,6.703,4.148,13.95,4.35,21.75l0.6,96.3h-16.5
				v-96.3c-0.201-5.4-1.251-10.449-3.149-15.15c-1.903-4.697-4.5-8.799-7.8-12.3c-3.301-3.497-7.102-6.249-11.4-8.25
				c-4.303-1.997-8.953-3-13.95-3c-4.603,0-8.953,0.952-13.05,2.85c-4.102,1.903-7.8,4.401-11.1,7.5
				c-3.3,3.103-6.103,6.75-8.4,10.95c-2.302,4.2-3.853,8.602-4.65,13.2v100.5h-16.2v-95.7c-0.202-5.4-1.303-10.5-3.3-15.3
				c-2.001-4.8-4.65-8.897-7.95-12.3c-3.3-3.398-7.2-6.099-11.7-8.1c-4.5-1.997-9.253-3-14.25-3c-4.402,0-8.602,0.952-12.6,2.85
				c-4.003,1.903-7.603,4.401-10.8,7.5c-3.201,3.103-5.953,6.75-8.25,10.95c-2.301,4.2-3.853,8.602-4.65,13.2c0,6.403,0,14.1,0,23.1
				s0.047,18.202,0.15,27.601c0.099,9.403,0.15,18.501,0.15,27.3c0,8.803,0,16.303,0,22.5h-16.5l-0.3-133.8v-16.2h16.5V141.35z"/>
			<path d="M895.152,200.45c0-10.801,1.847-20.897,5.55-30.3c3.698-9.398,8.747-17.597,15.149-24.6
				c6.398-6.999,13.898-12.548,22.5-16.65c8.598-4.097,17.7-6.15,27.301-6.15c9.6,0,18.646,2.053,27.149,6.15
				c8.499,4.102,15.9,9.651,22.2,16.65c6.3,7.003,11.297,15.202,15,24.6c3.698,9.403,5.55,19.5,5.55,30.3
				c0,10.603-1.852,20.55-5.55,29.85c-3.703,9.3-8.7,17.451-15,24.45c-6.3,7.003-13.701,12.553-22.2,16.649
				c-8.503,4.098-17.55,6.15-27.149,6.15c-9.601,0-18.703-2.053-27.301-6.15c-8.602-4.097-16.102-9.646-22.5-16.649
				c-6.402-6.999-11.451-15.15-15.149-24.45C896.999,221,895.152,211.053,895.152,200.45z M911.652,200.45
				c0,8.399,1.396,16.251,4.199,23.55c2.799,7.303,6.647,13.701,11.551,19.2c4.898,5.503,10.598,9.853,17.1,13.05
				c6.497,3.201,13.547,4.8,21.15,4.8c7.396,0,14.348-1.599,20.85-4.8c6.497-3.197,12.15-7.547,16.95-13.05
				c4.8-5.499,8.597-11.897,11.399-19.2c2.799-7.299,4.2-15.15,4.2-23.55c0-8.4-1.401-16.351-4.2-23.851
				c-2.803-7.5-6.6-13.997-11.399-19.5c-4.8-5.498-10.453-9.848-16.95-13.05c-6.502-3.197-13.453-4.8-20.85-4.8
				c-7.604,0-14.653,1.603-21.15,4.8c-6.502,3.202-12.201,7.552-17.1,13.05c-4.903,5.503-8.752,12-11.551,19.5
				C913.049,184.1,911.652,192.05,911.652,200.45z"/>
			<path d="M1048.747,124.55h17.101l51.3,125.4c8.4-21,16.847-41.949,25.35-62.851c8.499-20.896,16.95-41.747,25.351-62.55h18
				l-60.9,150h-15.6L1048.747,124.55z"/>
			<path d="M1265.048,260.75c3.998,0,8.1-0.398,12.3-1.2c4.2-0.797,8.25-1.847,12.149-3.15c3.9-1.298,7.547-2.746,10.95-4.35
				c3.398-1.599,6.3-3.3,8.7-5.1l6.6,15.3c-5.399,4.003-12.103,7.2-20.1,9.6c-8.002,2.4-15.802,4.097-23.4,5.101
				c-1.003,0.196-2.301,0.3-3.899,0.3c-1.604,0-2.901,0-3.9,0c-8.399,0-16.303-1.852-23.7-5.55
				c-7.401-3.699-13.949-8.799-19.649-15.301c-5.7-6.496-10.351-14.146-13.95-22.949c-3.6-8.799-5.7-18.197-6.3-28.2v-5.4
				c0-10.599,1.599-20.597,4.8-30c3.197-9.398,7.547-17.597,13.05-24.6c5.499-6.999,11.897-12.549,19.2-16.65
				c7.299-4.097,15.047-6.15,23.25-6.15c8.4,0,16.2,1.753,23.4,5.25c7.199,3.501,13.5,8.452,18.899,14.85
				c5.4,6.403,9.601,14.053,12.601,22.95c3,8.901,4.5,18.75,4.5,29.55v9.3h-102.9c0.6,7.604,2.25,14.851,4.95,21.75
				c2.7,6.9,6.149,12.9,10.35,18c4.2,5.101,9.047,9.15,14.55,12.15C1252.996,259.25,1258.845,260.75,1265.048,260.75z
				 M1304.647,188.15c-1.003-6.998-2.803-13.5-5.4-19.5c-2.602-6-5.85-11.147-9.75-15.45c-3.899-4.298-8.25-7.697-13.05-10.2
				c-4.8-2.499-9.899-3.75-15.3-3.75s-10.552,1.153-15.45,3.45c-4.903,2.302-9.3,5.602-13.2,9.9c-3.899,4.303-7.102,9.45-9.6,15.45
				c-2.503,6-4.153,12.703-4.95,20.1H1304.647z"/>
		</g>
	</g>
	<g>
		<rect style="opacity:0;" width="400" height="400"/>
		<g>
			<path d="M332.593,273.284c-0.917-3.434-3.596-6.111-7.028-7.029c-3.422-0.919-7.09,0.057-9.602,2.572l-16.541,16.538
				l-85.363-85.361l85.371-85.37l16.536,16.539c1.889,1.891,4.427,2.913,7.029,2.913c0.859,0,1.723-0.112,2.572-0.34
				c3.432-0.917,6.111-3.597,7.029-7.029l17.253-64.394c0.92-3.432-0.06-7.092-2.573-9.602c-2.512-2.514-6.177-3.493-9.602-2.573
				l-64.389,17.257c-3.433,0.917-6.111,3.599-7.029,7.029c-0.92,3.43,0.06,7.093,2.573,9.602l16.54,16.539L200,185.946
				l-85.369-85.369l16.538-16.539c2.513-2.51,3.493-6.172,2.573-9.602c-0.917-3.43-3.596-6.111-7.029-7.029L62.325,50.149
				c-3.42-0.922-7.092,0.059-9.602,2.573c-2.513,2.51-3.493,6.17-2.573,9.602l17.253,64.394c0.918,3.432,3.597,6.111,7.029,7.029
				c0.849,0.228,1.713,0.34,2.572,0.34c2.602,0,5.141-1.022,7.029-2.913l16.539-16.539l85.369,85.37l-85.362,85.362l-16.541-16.538
				c-2.51-2.515-6.182-3.488-9.602-2.572c-3.432,0.918-6.111,3.596-7.029,7.029l-17.257,64.392c-0.92,3.431,0.06,7.089,2.573,9.602
				c1.888,1.891,4.427,2.912,7.029,2.912c0.86,0,1.724-0.111,2.573-0.339l64.395-17.257c3.433-0.918,6.111-3.599,7.029-7.029
				c0.92-3.433-0.06-7.092-2.573-9.602l-16.538-16.538L200,214.063l85.361,85.363l-16.537,16.538
				c-2.513,2.51-3.494,6.17-2.573,9.602c0.918,3.43,3.596,6.111,7.029,7.029l64.395,17.257c0.849,0.228,1.713,0.339,2.573,0.339
				c2.602,0,5.141-1.021,7.029-2.912c2.513-2.513,3.493-6.171,2.573-9.602L332.593,273.284z"/>
		</g>
	</g>
</g>
</svg>
