<!DOCTYPE svg PUBLIC "-//W3C//DTD SVG 1.1//EN" "http://www.w3.org/Graphics/SVG/1.1/DTD/svg11.dtd">
<svg version="1.1" id="next-btn" xmlns="http://www.w3.org/2000/svg" xmlns:xlink="http://www.w3.org/1999/xlink" x="0px" y="0px"
	 width="100%" height="100%" viewBox="0 0 800 800" style="enable-background:new 0 0 800 800;" xml:space="preserve">
<g>
	<rect x="-0.5" y="0.5" style="opacity:0;stroke:#000000;stroke-miterlimit:10;" width="800" height="800"/>
	<g>
		<g id="_x34_84._Forward">
			<g>
				<path d="M485.064,257.427l-137.828-137.83c-6.133-6.129-16.073-6.129-22.203,0l-11.101,11.101
					c-6.129,6.133-6.129,16.076,0,22.201l115.621,115.626l-115.621,115.61c-6.129,6.136-6.129,16.086,0,22.209l11.101,11.101
					c6.13,6.136,16.07,6.136,22.203,0l137.828-137.831C491.199,273.487,491.199,263.556,485.064,257.427z"/>
			</g>
		</g>
	</g>
	<g>
		<path d="M171.023,552.173c9.998-12.398,22.8-18.601,38.399-18.601c6.999,0,13.599,1.453,19.8,4.351
			c6.197,2.901,11.598,6.853,16.2,11.85c4.599,5.002,8.25,10.852,10.95,17.55c2.7,6.703,4.148,13.95,4.35,21.75l0.9,96.9h-16.2
			l-0.3-96.9c-0.201-5.399-1.2-10.5-3-15.3s-4.2-8.948-7.2-12.45c-3-3.497-6.6-6.248-10.8-8.25c-4.2-1.997-8.803-3-13.8-3
			c-4.401,0-8.752,0.952-13.05,2.851c-4.304,1.902-8.25,4.401-11.851,7.5c-3.6,3.103-6.703,6.75-9.3,10.949
			c-2.602,4.2-4.303,8.7-5.1,13.5c0,6.403,0,14.101,0,23.101s0.047,18.253,0.149,27.75c0.099,9.501,0.15,18.703,0.15,27.6
			c0,8.901,0,16.453,0,22.65h-16.5l-0.3-150h16.5V552.173z"/>
		<path d="M345.621,672.173c3.999,0,8.101-0.398,12.301-1.2c4.199-0.797,8.25-1.847,12.149-3.15c3.9-1.298,7.547-2.747,10.95-4.35
			c3.398-1.599,6.3-3.3,8.7-5.101l6.6,15.301c-5.399,4.003-12.103,7.199-20.1,9.6c-8.002,2.4-15.802,4.097-23.4,5.1
			c-1.003,0.197-2.302,0.301-3.899,0.301c-1.604,0-2.902,0-3.9,0c-8.4,0-16.303-1.852-23.7-5.551
			c-7.401-3.698-13.95-8.798-19.649-15.3c-5.7-6.497-10.351-14.146-13.95-22.95c-3.601-8.798-5.7-18.196-6.3-28.199v-5.4
			c0-10.599,1.598-20.597,4.8-30c3.196-9.398,7.547-17.597,13.05-24.6c5.498-6.999,11.896-12.549,19.2-16.65
			c7.298-4.097,15.047-6.15,23.25-6.15c8.399,0,16.2,1.754,23.399,5.25c7.2,3.502,13.5,8.452,18.9,14.851
			c5.4,6.403,9.6,14.053,12.6,22.95c3,8.901,4.5,18.75,4.5,29.55v9.3H298.222c0.6,7.604,2.25,14.85,4.95,21.75
			c2.699,6.9,6.149,12.9,10.35,18s9.047,9.15,14.55,12.15C333.571,670.673,339.42,672.173,345.621,672.173z M385.222,599.572
			c-1.003-6.998-2.804-13.5-5.4-19.5c-2.602-6-5.85-11.146-9.75-15.45c-3.899-4.298-8.25-7.696-13.05-10.199
			c-4.8-2.499-9.9-3.75-15.3-3.75c-5.4,0-10.552,1.152-15.45,3.449c-4.903,2.302-9.3,5.602-13.2,9.9
			c-3.899,4.303-7.102,9.45-9.6,15.45c-2.503,6-4.153,12.703-4.95,20.1H385.222z"/>
		<path d="M418.82,535.973h20.401l36.299,58.2c5.799-9.601,12-19.397,18.6-29.4c6.602-9.998,12.797-19.599,18.602-28.8h20.1
			l-46.5,74.7c7.598,12,15.398,24.553,23.4,37.649c7.996,13.102,15.797,25.65,23.398,37.65h-19.799l-38.701-60.9
			c-6.402,10.2-12.65,20.354-18.75,30.45c-6.102,10.102-12.252,20.25-18.449,30.45h-19.8l47.101-77.7L418.82,535.973z"/>
		<path d="M595.816,480.173v57.899h39.301v16.5h-39.301c0,21.601,0.047,43.5,0.15,65.7c0.099,22.2,0.15,44.1,0.15,65.7h-16.2v-131.4
			h-22.2v-16.5h21.6v-57.899H595.816z"/>
	</g>
</g>
</svg>
