<!DOCTYPE svg PUBLIC "-//W3C//DTD SVG 1.1//EN" "http://www.w3.org/Graphics/SVG/1.1/DTD/svg11.dtd">
<svg version="1.1" id="prev-btn" xmlns="http://www.w3.org/2000/svg" xmlns:xlink="http://www.w3.org/1999/xlink" x="0px" y="0px"
	 width="100%" height="100%" viewBox="0 0 800 800" style="enable-background:new 0 0 800 800;" xml:space="preserve">
<g>
	<rect x="0.5" y="-0.5" style="opacity:0;stroke:#000000;stroke-miterlimit:10;" width="800" height="800"/>
	<g>
		<g id="_x34_84._Forward_1_">
			<g>
				<path d="M314.936,278.614l137.828,137.831c6.133,6.136,16.073,6.136,22.203,0l11.101-11.101c6.129-6.123,6.129-16.073,0-22.209
					l-115.621-115.61l115.621-115.626c6.129-6.125,6.129-16.068,0-22.201l-11.101-11.101c-6.13-6.129-16.07-6.129-22.203,0
					l-137.828,137.83C308.801,262.556,308.801,272.487,314.936,278.614z"/>
			</g>
		</g>
	</g>
	<g>
		<path d="M163.652,545.173c5.199-2.598,11.447-4.898,18.75-6.9c7.299-1.997,14.851-3,22.65-3c9.998,0.201,19.35,2.354,28.05,6.45
			c8.7,4.102,16.299,9.651,22.8,16.649c6.497,7.004,11.648,15.104,15.45,24.301c3.797,9.201,5.7,19.003,5.7,29.399
			c0,10.8-1.903,20.901-5.7,30.3c-3.802,9.403-8.953,17.602-15.45,24.601c-6.501,7.003-14.1,12.553-22.8,16.649
			c-8.7,4.098-18.052,6.15-28.05,6.15c-8.203,0-15.802-0.854-22.8-2.55c-7.003-1.697-13.102-4.05-18.3-7.05v63.899h-15.9v-207h15.6
			V545.173z M163.652,663.372c0.999,0.403,2.851,1.153,5.551,2.25c2.699,1.102,5.896,2.203,9.6,3.301c3.698,1.102,7.8,2.1,12.3,3
			c4.5,0.899,9.15,1.453,13.95,1.649c7.8-0.196,15.047-1.95,21.75-5.25c6.698-3.3,12.6-7.696,17.7-13.2
			c5.1-5.498,9.099-11.948,12-19.35c2.896-7.396,4.35-15.3,4.35-23.7c0-8.399-1.453-16.247-4.35-23.55
			c-2.901-7.299-6.9-13.65-12-19.05c-5.101-5.4-11.002-9.647-17.7-12.75c-6.703-3.099-13.95-4.65-21.75-4.65
			c-5.4,0-10.552,0.601-15.45,1.8c-4.903,1.2-9.352,2.504-13.35,3.9c-4.604,1.604-8.804,3.403-12.601,5.4V663.372z"/>
		<path d="M366.751,554.473c-2.4-0.797-4.5-1.397-6.301-1.8c-1.8-0.398-3.501-0.601-5.1-0.601c-4.604,0-9,1.102-13.2,3.3
			c-4.2,2.203-8.053,4.95-11.55,8.25c-3.502,3.301-6.502,7.004-9,11.101c-2.503,4.102-4.252,8.053-5.25,11.85
			c0,6.403,0,14.101,0,23.101s0.047,18.201,0.15,27.6c0.098,9.403,0.149,18.502,0.149,27.3c0,8.804,0,16.304,0,22.5h-16.5l-0.3-150
			h16.5v16.8c9.998-12.398,22.697-18.6,38.1-18.6c0.999,0,3.197,0.201,6.601,0.6c3.398,0.403,6,0.9,7.8,1.5L366.751,554.473z"/>
		<path d="M445.35,673.272c3.998,0,8.1-0.398,12.3-1.2c4.2-0.797,8.25-1.847,12.149-3.149c3.9-1.299,7.547-2.747,10.95-4.351
			c3.398-1.599,6.3-3.3,8.7-5.1l6.6,15.3c-5.399,4.003-12.103,7.2-20.1,9.6c-8.002,2.4-15.802,4.098-23.4,5.101
			c-1.003,0.196-2.301,0.3-3.899,0.3c-1.604,0-2.901,0-3.9,0c-8.399,0-16.303-1.852-23.7-5.55
			c-7.401-3.698-13.949-8.799-19.649-15.3c-5.7-6.497-10.35-14.147-13.95-22.95c-3.6-8.799-5.7-18.197-6.3-28.2v-5.4
			c0-10.598,1.599-20.597,4.8-30c3.197-9.398,7.547-17.597,13.05-24.6c5.499-6.998,11.897-12.549,19.2-16.65
			c7.299-4.097,15.047-6.149,23.25-6.149c8.4,0,16.2,1.753,23.4,5.25c7.199,3.501,13.5,8.451,18.899,14.85
			c5.4,6.403,9.601,14.054,12.601,22.95c3,8.901,4.5,18.75,4.5,29.55v9.3h-102.9c0.601,7.604,2.25,14.851,4.95,21.75
			c2.7,6.9,6.15,12.9,10.35,18c4.2,5.101,9.047,9.15,14.55,12.15C433.298,671.772,439.148,673.272,445.35,673.272z M484.95,600.673
			c-1.003-6.999-2.803-13.5-5.4-19.5c-2.602-6-5.85-11.147-9.75-15.45c-3.899-4.299-8.25-7.697-13.05-10.2
			c-4.8-2.498-9.899-3.75-15.3-3.75s-10.552,1.153-15.45,3.45c-4.903,2.302-9.3,5.602-13.199,9.899
			c-3.9,4.304-7.102,9.45-9.601,15.45c-2.503,6-4.153,12.703-4.95,20.101H484.95z"/>
		<path d="M515.847,537.072h17.101l51.3,125.4c8.4-21,16.847-41.948,25.35-62.851c8.499-20.896,16.95-41.746,25.351-62.55h18
			l-60.9,150h-15.6L515.847,537.072z"/>
	</g>
</g>
</svg>
