<!DOCTYPE svg PUBLIC "-//W3C//DTD SVG 1.1//EN" "http://www.w3.org/Graphics/SVG/1.1/DTD/svg11.dtd">
<svg version="1.1" id="remove-btn" xmlns="http://www.w3.org/2000/svg" xmlns:xlink="http://www.w3.org/1999/xlink" x="0px" y="0px"
	 width="100%" height="100%" viewBox="0 0 1600 400" style="enable-background:new 0 0 1600 400;" xml:space="preserve">
<rect style="opacity:0;" width="1600" height="400"/>
<g>
	<g>
		<rect x="400" style="opacity:0;" width="1200" height="400"/>
		<g>
			<path d="M634.87,134.025c-2.399-0.797-4.5-1.397-6.3-1.8c-1.8-0.398-3.501-0.6-5.1-0.6c-4.604,0-9,1.102-13.2,3.3
				c-4.2,2.203-8.053,4.95-11.55,8.25c-3.502,3.3-6.502,7.003-9,11.1c-2.503,4.102-4.252,8.053-5.25,11.85c0,6.403,0,14.1,0,23.1
				s0.047,18.202,0.149,27.6c0.099,9.403,0.15,18.501,0.15,27.3c0,8.803,0,16.303,0,22.5h-16.5l-0.3-150h16.5v16.8
				c9.998-12.398,22.696-18.6,38.1-18.6c0.999,0,3.197,0.201,6.601,0.6c3.398,0.403,6,0.9,7.8,1.5L634.87,134.025z"/>
			<path d="M713.47,252.825c3.998,0,8.1-0.398,12.3-1.2c4.2-0.797,8.25-1.847,12.149-3.15c3.9-1.298,7.547-2.746,10.95-4.35
				c3.398-1.599,6.3-3.3,8.7-5.1l6.6,15.3c-5.399,4.003-12.103,7.2-20.1,9.6c-8.002,2.4-15.802,4.097-23.4,5.101
				c-1.003,0.196-2.301,0.3-3.899,0.3c-1.604,0-2.901,0-3.9,0c-8.399,0-16.303-1.852-23.7-5.55
				c-7.401-3.699-13.949-8.799-19.649-15.301c-5.7-6.496-10.351-14.146-13.95-22.949c-3.6-8.799-5.7-18.197-6.3-28.2v-5.4
				c0-10.598,1.599-20.597,4.8-30c3.197-9.398,7.547-17.597,13.05-24.6c5.499-6.999,11.897-12.549,19.2-16.65
				c7.299-4.097,15.047-6.15,23.25-6.15c8.4,0,16.2,1.753,23.4,5.25c7.199,3.501,13.5,8.452,18.899,14.85
				c5.4,6.403,9.601,14.053,12.601,22.95c3,8.901,4.5,18.75,4.5,29.55v9.3h-102.9c0.6,7.604,2.25,14.851,4.95,21.75
				c2.7,6.9,6.149,12.9,10.35,18c4.2,5.101,9.047,9.15,14.55,12.15C701.418,251.325,707.268,252.825,713.47,252.825z
				 M753.07,180.225c-1.003-6.999-2.803-13.5-5.4-19.5c-2.602-6-5.85-11.147-9.75-15.45c-3.899-4.298-8.25-7.697-13.05-10.2
				c-4.8-2.499-9.899-3.75-15.3-3.75s-10.552,1.153-15.45,3.45c-4.903,2.302-9.3,5.602-13.2,9.9c-3.899,4.303-7.102,9.45-9.6,15.45
				c-2.503,6-4.153,12.703-4.95,20.1H753.07z"/>
			<path d="M806.768,133.425c4.8-5.798,10.396-10.298,16.8-13.5c6.398-3.197,13.396-4.8,21-4.8c9.797,0,18.646,2.751,26.55,8.25
				c7.898,5.503,14.146,12.45,18.75,20.85c2.4-5.199,5.297-9.699,8.7-13.5c3.398-3.797,7.148-6.9,11.25-9.3
				c4.097-2.4,8.297-4.148,12.6-5.25c4.299-1.097,8.447-1.65,12.45-1.65c6.998,0,13.547,1.453,19.65,4.35
				c6.098,2.901,11.446,6.802,16.05,11.7c4.599,4.903,8.25,10.701,10.95,17.4c2.699,6.703,4.148,13.95,4.35,21.75l0.6,96.3h-16.5
				v-96.3c-0.201-5.4-1.251-10.449-3.149-15.15c-1.903-4.697-4.5-8.799-7.8-12.3c-3.301-3.497-7.102-6.249-11.4-8.25
				c-4.303-1.997-8.953-3-13.95-3c-4.603,0-8.953,0.952-13.05,2.85c-4.102,1.903-7.8,4.401-11.1,7.5
				c-3.301,3.103-6.104,6.75-8.4,10.95c-2.302,4.2-3.854,8.602-4.65,13.2v100.5h-16.199v-95.7c-0.202-5.4-1.304-10.5-3.301-15.3
				c-2.001-4.8-4.649-8.897-7.949-12.3c-3.301-3.398-7.2-6.099-11.7-8.1c-4.5-1.997-9.253-3-14.25-3
				c-4.401,0-8.602,0.952-12.601,2.85c-4.003,1.903-7.603,4.401-10.8,7.5c-3.201,3.103-5.953,6.75-8.25,10.95
				c-2.302,4.2-3.853,8.602-4.649,13.2c0,6.403,0,14.1,0,23.1s0.047,18.202,0.149,27.6c0.099,9.403,0.15,18.501,0.15,27.3
				c0,8.803,0,16.303,0,22.5h-16.5l-0.3-133.8v-16.2h16.5V133.425z"/>
			<path d="M1005.967,192.525c0-10.8,1.847-20.897,5.55-30.3c3.698-9.398,8.747-17.597,15.149-24.6
				c6.398-6.999,13.898-12.548,22.5-16.65c8.598-4.097,17.7-6.15,27.301-6.15c9.6,0,18.646,2.053,27.149,6.15
				c8.499,4.102,15.9,9.651,22.2,16.65c6.3,7.003,11.297,15.202,15,24.6c3.698,9.403,5.55,19.5,5.55,30.3
				c0,10.603-1.852,20.55-5.55,29.85c-3.703,9.3-8.7,17.451-15,24.45c-6.3,7.003-13.701,12.553-22.2,16.649
				c-8.503,4.098-17.55,6.15-27.149,6.15c-9.601,0-18.703-2.053-27.301-6.15c-8.602-4.097-16.102-9.646-22.5-16.649
				c-6.402-6.999-11.451-15.15-15.149-24.45C1007.814,213.075,1005.967,203.128,1005.967,192.525z M1022.467,192.525
				c0,8.4,1.396,16.251,4.199,23.55c2.799,7.303,6.647,13.701,11.551,19.2c4.898,5.503,10.598,9.853,17.1,13.05
				c6.497,3.201,13.547,4.8,21.15,4.8c7.396,0,14.348-1.599,20.85-4.8c6.497-3.197,12.15-7.547,16.95-13.05
				c4.8-5.499,8.597-11.897,11.399-19.2c2.799-7.299,4.2-15.15,4.2-23.55s-1.401-16.35-4.2-23.85c-2.803-7.5-6.6-13.997-11.399-19.5
				c-4.8-5.498-10.453-9.848-16.95-13.05c-6.502-3.197-13.453-4.8-20.85-4.8c-7.604,0-14.653,1.603-21.15,4.8
				c-6.502,3.202-12.201,7.552-17.1,13.05c-4.903,5.503-8.752,12-11.551,19.5C1023.864,176.175,1022.467,184.125,1022.467,192.525z"
				/>
			<path d="M1159.562,116.625h17.101l51.3,125.4c8.4-21,16.847-41.949,25.35-62.851c8.499-20.896,16.95-41.747,25.351-62.55h18
				l-60.9,150h-15.6L1159.562,116.625z"/>
			<path d="M1375.863,252.825c3.998,0,8.1-0.398,12.3-1.2c4.2-0.797,8.25-1.847,12.149-3.15c3.9-1.298,7.547-2.746,10.95-4.35
				c3.398-1.599,6.3-3.3,8.7-5.1l6.6,15.3c-5.399,4.003-12.103,7.2-20.1,9.6c-8.002,2.4-15.802,4.097-23.4,5.101
				c-1.003,0.196-2.301,0.3-3.899,0.3c-1.604,0-2.901,0-3.9,0c-8.399,0-16.303-1.852-23.7-5.55
				c-7.401-3.699-13.949-8.799-19.649-15.301c-5.7-6.496-10.351-14.146-13.95-22.949c-3.6-8.799-5.7-18.197-6.3-28.2v-5.4
				c0-10.598,1.599-20.597,4.8-30c3.197-9.398,7.547-17.597,13.05-24.6c5.499-6.999,11.897-12.549,19.2-16.65
				c7.299-4.097,15.047-6.15,23.25-6.15c8.4,0,16.2,1.753,23.4,5.25c7.199,3.501,13.5,8.452,18.899,14.85
				c5.4,6.403,9.601,14.053,12.601,22.95c3,8.901,4.5,18.75,4.5,29.55v9.3h-102.9c0.6,7.604,2.25,14.851,4.95,21.75
				c2.7,6.9,6.149,12.9,10.35,18c4.2,5.101,9.047,9.15,14.55,12.15C1363.811,251.325,1369.66,252.825,1375.863,252.825z
				 M1415.462,180.225c-1.003-6.999-2.803-13.5-5.4-19.5c-2.602-6-5.85-11.147-9.75-15.45c-3.899-4.298-8.25-7.697-13.05-10.2
				c-4.8-2.499-9.899-3.75-15.3-3.75s-10.552,1.153-15.45,3.45c-4.903,2.302-9.3,5.602-13.2,9.9c-3.899,4.303-7.102,9.45-9.6,15.45
				c-2.503,6-4.153,12.703-4.95,20.1H1415.462z"/>
		</g>
	</g>
	<g>
		<rect style="opacity:0;" width="400" height="400"/>
		<g>
			<g>
				<g>
					<path d="M305.941,132.422c0-2.978,2.415-5.394,5.393-5.394c2.978,0,5.394,2.427,5.394,5.394v206.915
						c0,9.135-3.754,17.451-9.776,23.485c-6.022,6.023-14.35,9.776-23.485,9.776H116.264c-9.135,0-17.473-3.753-23.485-9.776
						c-6.023-6.023-9.776-14.337-9.776-23.485V132.422c0-2.978,2.416-5.394,5.393-5.394c2.978,0,5.394,2.427,5.394,5.394v206.915
						c0,6.158,2.54,11.787,6.607,15.855c4.068,4.068,9.697,6.618,15.855,6.618h167.204c6.158,0,11.775-2.551,15.844-6.618
						c4.079-4.079,6.618-9.697,6.618-15.844V132.422H305.941z"/>
					<path d="M159.637,325.403c0,2.978-2.416,5.393-5.394,5.393c-2.978,0-5.394-2.415-5.394-5.393V133.815
						c0-2.978,2.416-5.394,5.394-5.394c2.978,0,5.394,2.416,5.394,5.394V325.403z"/>
					<path d="M205.259,325.403c0,2.978-2.415,5.393-5.393,5.393c-2.978,0-5.394-2.415-5.394-5.393V133.815
						c0-2.978,2.416-5.394,5.394-5.394c2.978,0,5.393,2.416,5.393,5.394V325.403z"/>
					<path d="M250.891,325.403c0,2.978-2.415,5.393-5.393,5.393c-2.978,0-5.394-2.415-5.394-5.393V133.815
						c0-2.978,2.415-5.394,5.394-5.394c2.978,0,5.393,2.416,5.393,5.394V325.403L250.891,325.403z"/>
					<path d="M156.491,60.664c0,2.978-2.416,5.394-5.394,5.394c-2.977,0-5.393-2.416-5.393-5.394c0-9.158,3.742-17.473,9.765-23.496
						c6.023-6.023,14.338-9.765,23.496-9.765h41.801c9.147,0,17.462,3.753,23.484,9.776c6.023,6.023,9.776,14.36,9.776,23.485
						c0,2.978-2.415,5.394-5.393,5.394c-2.978,0-5.393-2.416-5.393-5.394c0-6.158-2.539-11.787-6.607-15.855
						c-4.069-4.068-9.697-6.619-15.855-6.619h-41.8c-6.169,0-11.787,2.539-15.866,6.607
						C159.03,48.876,156.491,54.495,156.491,60.664z"/>
					<path d="M74.462,76.17h250.805c5.292,0,10.124,2.169,13.63,5.675l0.022,0.023c3.506,3.506,5.675,8.338,5.675,13.63v13.934
						c0,2.977-2.416,5.393-5.394,5.393h-0.146H60.529c-2.978,0-5.394-2.416-5.394-5.393v-0.135V95.498
						c0-5.281,2.169-10.124,5.675-13.63l0.023-0.023C64.338,78.339,69.181,76.17,74.462,76.17L74.462,76.17z M325.268,86.958H74.462
						c-2.348,0-4.495,0.955-6.023,2.494l-0.023,0.023c-1.54,1.528-2.494,3.663-2.494,6.023v8.54h267.874v-8.54
						c0-2.348-0.955-4.495-2.494-6.023l-0.023-0.023C329.752,87.913,327.616,86.958,325.268,86.958z"/>
				</g>
			</g>
		</g>
	</g>
</g>
</svg>
